<svg version="1.2" xmlns="http://www.w3.org/2000/svg" viewBox="0 0 512 512" width="514" height="514"><style>.a{fill:#cecece}.b{fill:#989898}.c{fill:#f03800}.d{fill:#edf5ff}.e{fill:#d5e8fe}.f{fill:#30c78d}</style><path class="a" d="m436 61h-9c-58.5 0-115.9-21.1-161.6-57.7-2.8-2.2-6.1-3.3-9.4-3.3-3.3 0-6.6 1.1-9.4 3.3-45.7 36.6-103.1 57.7-161.7 57.7h-8.9c-8.3 0-15 6.7-15 15v207.5c0 113.1 81 209.7 192.5 228.3q1.3 0.2 2.5 0.2 1.2 0 2.5-0.2c111.5-18.6 192.5-115.2 192.5-228.3v-207.5c0-8.3-6.7-15-15-15z"/><path class="b" d="m451 283.5v-207.5c0-8.3-6.7-15-15-15h-9c-58.5 0-115.9-21.1-161.6-57.7-2.8-2.2-6.1-3.3-9.4-3.3v512q1.2 0 2.5-0.2c111.5-18.6 192.5-115.2 192.5-228.3z"/><path class="c" d="m256 450.8q1.7 0 3.4-0.4c77.5-18 131.6-87.2 131.6-166.9v-27.5l-24.9-30h-78l-32.1 30-30 25.4v120.8z"/><path class="d" d="m252.6 450.4q1.7 0.4 3.4 0.4v-194.8l-29.7-30h-64.6l-40.7 30v27.5c0 79.7 54.1 148.9 131.6 166.9z"/><path class="e" d="m391 256v-124c0-7.4-5.4-13.6-12.7-14.8-40.7-6.3-79.3-20.2-114.6-41.3-2.4-1.4-5.1-2.1-7.7-2.1l-30 34.6v119.8l30 27.8z"/><path class="c" d="m256 73.8c-2.7 0-5.3 0.7-7.7 2.1-35.3 21.1-73.9 35-114.6 41.3-7.3 1.2-12.7 7.4-12.7 14.8v124h135c0 0 0-182.2 0-182.2z"/><path class="f" d="m128.5 1.8c-1.1-1.1-2.6-1.7-4.2-1.7-1.6 0-3.1 0.6-4.2 1.7l-118.4 118.8c-2.3 2.3-2.3 6.1 0.1 8.4 1.1 1.1 2.6 1.7 4.1 1.7h65.3v148.4c0 3.2 2.6 5.9 5.9 5.9h95c3.3 0 5.9-2.7 5.9-5.9v-148.4h65c3.3 0 6-2.7 6-6 0-1.5-0.6-3-1.7-4.2z"/></svg>