<svg version="1.2" xmlns="http://www.w3.org/2000/svg" viewBox="0 0 512 512" width="514" height="514"><style>.a{fill:#7a6cf7}.b{fill:#6959e2}.c{fill:#9391f9}.d{fill:#ffdc13}.e{fill:#ffed97}.f{fill:#e56767}</style><path class="a" d="m509.3 441.7c0 38.8-113.4 70.3-253.3 70.3-139.9 0-253.3-31.5-253.3-70.3 0-19.9 29.7-37.8 77.4-50.6 45.6-12.2 107.6-19.7 175.9-19.7 68.3 0 130.3 7.5 175.9 19.7 47.7 12.8 77.4 30.7 77.4 50.6z"/><path class="b" d="m509.3 441.7c0 38.8-113.4 70.3-253.3 70.3-139.9 0-253.3-31.5-253.3-70.3q0-3.6 1.3-7.1c12.9 35.5 120.8 63.2 252 63.2 131.2 0 239.1-27.7 252-63.2q1.3 3.5 1.3 7.1z"/><path class="b" d="m439.2 424.2c-0.5 0.8-3.3 4.7-9.4 10.1-6.1 5.4-15.5 12.3-29.6 18.9-35.6 17-84.2 25.6-144.2 25.6-60 0-108.6-8.6-144.2-25.6-28.1-13.3-37.9-27.4-39-29-1.4-2.2-2.2-4.8-2.2-7.4 0-1.7 0.3-3.4 1-5.1l8.5-20.6c45.6-12.2 107.6-19.7 175.9-19.7 68.3 0 130.3 7.5 175.9 19.7l8.5 20.6c1.7 4.1 1.2 8.8-1.2 12.5z"/><path class="a" d="m399.8 348.6l26.5 64c1.1 2.8 0.5 5.9-1.6 8.1-11 11.5-52.9 44.7-168.7 44.7-115.8 0-157.7-33.2-168.8-44.7-2-2.2-2.6-5.3-1.5-8.1l26.5-64 5.1-12.5 137.1-332.3c1-2.3 3.2-3.8 5.7-3.8h77.4c2.3 0 4.4 1.2 5.5 3.2l71.9 132.8c3.2 5.8-3.8 11.8-9.1 7.9l-79.1-58.8-12.6-9.4-0.2-0.1-7.1 7-11.8 11.8 99.7 241.7z"/><path class="c" d="m348.5 13.4h-83l-138.7 336.1-5.1 12.4-27 65.4c-3.3-2.6-5.8-4.9-7.5-6.6-2-2.2-2.6-5.3-1.5-8.1l26.5-64 5.1-12.5 137.1-332.3c1-2.3 3.2-3.8 5.7-3.8h77.4c2.3 0 4.4 1.2 5.5 3.2z"/><path class="b" d="m426.3 412.6c1.1 2.8 0.5 5.9-1.6 8.1-11 11.5-52.9 44.7-168.7 44.7-115.8 0-157.7-33.2-168.8-44.7-2-2.2-2.6-5.3-1.5-8.1l26.5-64 5.1-12.5 1.1 0.6c22.1 11.6 63.9 25.4 137.6 25.4 73.7 0 115.5-13.8 137.6-25.4l1.1-0.6 5.1 12.5z"/><path class="d" d="m426.3 412.7c1.1 2.7 0.5 5.8-1.6 8-11 11.5-52.9 44.7-168.7 44.7-115.8 0-157.7-33.2-168.8-44.7-2-2.2-2.6-5.3-1.5-8l26.5-64.1c24.7 12.9 68.7 26.9 143.8 26.9 75.1 0 119.1-14 143.8-26.9z"/><path class="e" d="m405 361c-27.6 13.3-73.8 28.1-149 28.1-75.2 0-121.4-14.8-149-28.1l5.2-12.4c24.7 12.9 68.7 26.9 143.8 26.9 75.1 0 119.1-14 143.8-26.9z"/><path class="b" d="m306.8 82.6l-11.8 11.8q-0.2-0.3-0.4-0.7l-14.1-34.1c-1.6-4 0.3-8.5 4.2-10.1 4-1.7 8.5 0.2 10.1 4.2z"/><path class="b" d="m336.7 75.6l-10 9.5-12.6-9.4 11.9-11.3c3.1-3 8-2.9 11 0.2 2.9 3.1 2.8 8-0.3 11z"/><path class="d" d="m256.1 303.3l-20.5 10.8c-2.6 1.4-5.7-0.8-5.2-3.7l3.9-22.9-16.6-16.2c-2.1-2.1-0.9-5.6 2-6.1l23-3.3 10.2-20.8c1.3-2.6 5.1-2.6 6.4 0l10.3 20.8 22.9 3.3c2.9 0.5 4.1 4 2 6.1l-16.6 16.2 3.9 22.9c0.5 2.9-2.5 5.1-5.2 3.7z"/><path class="f" d="m383.5 510.3c1.1 1.1 2.6 1.7 4.2 1.7 1.6 0 3.1-0.6 4.2-1.8l118.4-118.7c2.3-2.4 2.3-6.1-0.1-8.4-1.1-1.1-2.6-1.7-4.1-1.7h-65.3v-148.4c0-3.2-2.6-5.9-5.9-5.9h-95c-3.3 0-5.9 2.7-5.9 5.9v148.4h-65.1c-3.2 0-5.9 2.7-5.9 6 0 1.5 0.6 3 1.7 4.2z"/></svg>