<svg version="1.2" xmlns="http://www.w3.org/2000/svg" viewBox="0 0 512 512" width="514" height="514"><style>.a{fill:#e1d3ce}.b{fill:#b4aaaa}.c{fill:#c78f2c}.d{fill:#62320d}.e{fill:#9e5015}.f{fill:#87a0af}.g{fill:#b4d2d7}.h{fill:#e56767}</style><path class="a" d="m118.3 58.3l31.1 304.3 27.4-27.4-28.6-280z"/><path class="b" d="m149.4 362.6l304.4 31.1 3-29.9-280-28.6z"/><path class="c" d="m460.9 29.9l21.2 21.2-385 385-21.2-21.2z"/><path class="d" d="m396.7 115.3h-46.2v46.2l65.5 65.5c40.8 40.8 40.8 107 0 147.8-25.5 25.5-25.5 66.9 0 92.4l46.3-46.2c66.3-66.4 66.3-173.9 0-240.2z"/><path class="e" d="m331.2 49.7c-66.3-66.3-173.8-66.3-240.2 0l-46.2 46.3c25.5 25.5 66.9 25.5 92.4 0 40.8-40.8 107-40.8 147.8 0l65.5 65.5 46.2-46.2z"/><path class="f" d="m491.5 117.5l20.5-117.5-55.2 25-13.8 44z"/><path class="g" d="m443 69l69-69-117.5 20.5z"/><path class="b" d="m50.1 461.9l19.3 50.1 74.1-74.2-19.2-50.1-56.8 24.3z"/><path class="a" d="m0 442.6l50.1 19.3 74.2-74.2-50.1-19.2z"/><path class="h" d="m383.5 510.3c1.1 1.1 2.6 1.7 4.2 1.7 1.6 0 3.1-0.6 4.2-1.8l118.4-118.7c2.3-2.4 2.3-6.1-0.1-8.4-1.1-1.1-2.6-1.7-4.1-1.7h-65.3v-148.4c0-3.2-2.6-5.9-5.9-5.9h-95c-3.3 0-5.9 2.7-5.9 5.9v148.4h-65.1c-3.2 0-5.9 2.7-5.9 6 0 1.5 0.6 3 1.7 4.2z"/></svg>