<svg version="1.2" xmlns="http://www.w3.org/2000/svg" viewBox="0 0 512 512" width="514" height="514"><style>.a{fill:#ffd2a7}.b{fill:#ffc186}.c{fill:#f09b59}.d{fill:#30c78d}</style><path class="a" d="m449.4 115.7l-10-25.6-95.1-89.7-134 60.9-12.7 89 40.2 53.6h88.5v68q-2.4-2.1-4.9-4c-23.2-17.9-51.1-27.3-80.5-27.3-29.4 0-57.2 9.4-80.5 27.3q-5.6 4.3-10.7 9.2c-27.9-23.5-63.3-36.5-100.7-36.5h-49v270.7l87.8-25.7c51.3 17.3 104.8 26 158.3 26 62.2 0 124.4-11.8 183.2-35.2l82.7-32.9v-10.2c0-109.4-18.7-204.4-62.6-317.6z"/><path class="b" d="m449.4 115.7l-10-25.6-95.1-89.7-88.3 40.2v163.3h70.3v68q-2.4-2.1-4.9-4c-19.2-14.8-41.6-23.8-65.4-26.5v270.1c58.9-1.2 117.7-12.9 173.3-35.1l82.7-32.9v-10.2c0-109.4-18.7-204.4-62.6-317.6z"/><path class="b" d="m309.1 109.9l-29.2-6.9-4.1 17.2h-73.9l-4.3 30h101.9z"/><path class="c" d="m279.9 103l-4.1 17.2h-19.8v30h43.5l9.6-40.3z"/><path class="d" d="m128.5 1.8c-1.1-1.1-2.6-1.7-4.2-1.7-1.6 0-3.1 0.6-4.2 1.7l-118.4 118.8c-2.3 2.3-2.3 6.1 0.1 8.4 1.1 1.1 2.6 1.7 4.1 1.7h65.3v148.4c0 3.2 2.6 5.9 5.9 5.9h95c3.3 0 5.9-2.7 5.9-5.9v-148.4h65c3.3 0 6-2.7 6-6 0-1.5-0.6-3-1.7-4.2z"/></svg>